<?xml version="1.0" encoding="utf-8"?>
<!-- Generator: Adobe Illustrator 21.0.0, SVG Export Plug-In . SVG Version: 6.00 Build 0)  -->
<svg version="1.1" id="Layer_1" xmlns="http://www.w3.org/2000/svg" xmlns:xlink="http://www.w3.org/1999/xlink" x="0px" y="0px"
	 viewBox="0 0 156 39" style="enable-background:new 0 0 156 39;" xml:space="preserve">
<style type="text/css">
	.st0{fill:#ECECEC;}
	.st1{fill:#E0AF58;}
</style>
<g>
	<g>
		<polygon class="st0" points="7.1,10 16.1,10 10.1,27 1.1,27 		"/>
	</g>
</g>
<path class="st0" d="M60.9,13.2c0.3,0,0.5,0.2,0.5,0.5v9.4h0.8c0.8,0,1.5,0,2.3-0.1c0.6,0,1.2-0.1,1.9-0.2c0.3,0,0.6,0.2,0.6,0.4
	l0.1,0.7c0,0.3-0.2,0.5-0.4,0.6c-0.7,0.1-1.4,0.2-2.2,0.2c-1,0.1-2,0.1-3.1,0.1H60c-0.3,0-0.5-0.2-0.5-0.5V13.7
	c0-0.3,0.2-0.5,0.5-0.5H60.9z M74.1,29.9h-0.9c-0.3,0-0.5-0.2-0.5-0.5v-9.7c0-0.3-0.2-0.5-0.5-0.5h-1.3c-0.3,0-0.5,0.2-0.5,0.5v8.8
	c0,0.3-0.2,0.5-0.5,0.5h-0.9c-0.3,0-0.5-0.2-0.5-0.5V12.4c0-0.3,0.2-0.5,0.5-0.5h0.9c0.3,0,0.5,0.2,0.5,0.5v4.6
	c0,0.3,0.2,0.5,0.5,0.5h1.3c0.3,0,0.5-0.2,0.5-0.5V12c0-0.3,0.2-0.5,0.5-0.5h0.9c0.3,0,0.5,0.2,0.5,0.5v17.4
	C74.6,29.7,74.4,29.9,74.1,29.9z"/>
<g>
	<path class="st1" d="M86.3,16.8c-0.1,0.2-0.3,0.5-0.6,0.9c-0.3,0.4-0.7,0.7-1.1,1c-0.5,0.4-1.1,0.9-1.9,1.4
		c-0.5,0.4-1.1,0.8-1.6,1.1c-0.3,0.2-0.7,0.1-0.9-0.2l-0.6-0.8c-0.2-0.3-0.2-0.7,0.2-1c0.6-0.4,1.2-0.8,1.7-1.2
		c0.7-0.5,1.4-1,1.8-1.4c0.3-0.3,0.6-0.6,0.8-0.9c0.2-0.3,0.4-0.6,0.5-0.9c0.1-0.3,0.2-0.6,0.2-1c0-0.4,0.1-0.8,0.1-1.2v-0.3h-4.3
		c-0.4,0-0.7-0.3-0.7-0.7V11c0-0.4,0.3-0.7,0.7-0.7h10.9c0.4,0,0.7,0.3,0.7,0.7v0.8c0,0.4-0.3,0.7-0.7,0.7h-4v0.2c0,0.4,0,0.8,0,1.1
		c0,0.3,0.1,0.6,0.1,0.9c0.1,0.3,0.2,0.5,0.4,0.7c0.2,0.2,0.4,0.5,0.7,0.8c0.6,0.5,1.2,1,2,1.5c0.5,0.4,1.1,0.7,1.6,1.1
		c0.3,0.2,0.4,0.6,0.2,1l-0.6,0.8c-0.2,0.3-0.6,0.4-0.9,0.2c-0.5-0.3-1-0.6-1.4-1c-0.6-0.5-1.2-0.9-1.8-1.3
		c-0.3-0.3-0.6-0.5-0.9-0.8C86.6,17.2,86.4,17,86.3,16.8L86.3,16.8z M98,22.8v8.9c0,0.4-0.3,0.7-0.7,0.7H84.1
		c-0.4,0-0.7-0.3-0.7-0.7v-8.9c0-0.4,0.3-0.7,0.7-0.7h1.2c0.4,0,0.7,0.3,0.7,0.7v1.6c0,0.4,0.3,0.7,0.7,0.7h8.3
		c0.4,0,0.7-0.3,0.7-0.7v-1.6c0-0.4,0.3-0.7,0.7-0.7h1.2C97.7,22.1,98,22.4,98,22.8z M95.5,29.6v-1.7c0-0.4-0.3-0.7-0.7-0.7h-8.3
		c-0.4,0-0.7,0.3-0.7,0.7v1.7c0,0.4,0.3,0.7,0.7,0.7h8.3C95.2,30.3,95.5,30,95.5,29.6z M95.5,20.3V9.7c0-0.4,0.3-0.7,0.7-0.7h1.2
		C97.7,9,98,9.3,98,9.7v10.7c0,0.4-0.3,0.7-0.7,0.7h-1.2C95.8,21,95.5,20.7,95.5,20.3z"/>
</g>
<g>
	<path class="st0" d="M109.5,29.4v-6.4c0-0.3-0.2-0.5-0.5-0.5h-6.4c-0.3,0-0.5-0.2-0.5-0.5v-0.6c0-0.3,0.2-0.5,0.5-0.5h4.1
		c0.2,0,0.5-0.2,0.5-0.4c0.1-0.4,0.2-0.8,0.3-1.2c0.1-0.5,0.2-1,0.3-1.5s0.1-1,0.1-1.4c0-0.4,0-0.8,0-1.1v-0.8h-3.7
		c-0.3,0-0.5-0.2-0.5-0.5v-0.7c0-0.3,0.2-0.5,0.5-0.5h5.6v1.4c0,1.1-0.1,2.3-0.2,3.4c-0.1,0.9-0.2,1.8-0.4,2.6
		c-0.1,0.3,0.2,0.6,0.5,0.6h4c0.2,0,0.5-0.2,0.5-0.4c0.2-1,0.4-1.9,0.4-2.6c0.1-0.9,0.1-1.7,0.1-2.5v-0.8h-3.5
		c-0.3,0-0.5-0.2-0.5-0.5v-0.7c0-0.3,0.2-0.5,0.5-0.5h5.4v1.4c0,1,0,2.1-0.1,3.2c0,0.9-0.2,1.9-0.4,2.8c-0.1,0.3,0.2,0.6,0.5,0.6
		h1.8c0.3,0,0.5,0.2,0.5,0.5v0.6c0,0.3-0.2,0.5-0.5,0.5H112c-0.3,0-0.5,0.2-0.5,0.5v6.4c0,0.3-0.2,0.5-0.5,0.5H110
		C109.7,29.9,109.5,29.7,109.5,29.4z"/>
	<path class="st0" d="M121.5,24.5V13.7c0-0.3,0.2-0.5,0.5-0.5h7.6c0.3,0,0.5,0.2,0.5,0.5v10.8c0,0.3-0.2,0.5-0.5,0.5h-7.6
		C121.8,25.1,121.5,24.8,121.5,24.5z M124,23.4h3.6c0.3,0,0.5-0.2,0.5-0.5v-7.5c0-0.3-0.2-0.5-0.5-0.5H124c-0.3,0-0.5,0.2-0.5,0.5
		v7.5C123.5,23.1,123.7,23.4,124,23.4z M133.5,29.4V12c0-0.3,0.2-0.5,0.5-0.5h0.9c0.3,0,0.5,0.2,0.5,0.5v17.4c0,0.3-0.2,0.5-0.5,0.5
		H134C133.7,29.9,133.5,29.7,133.5,29.4z"/>
	<path class="st0" d="M139.5,24.8c-0.2-0.3-0.1-0.6,0.2-0.7c0.9-0.5,1.6-1,2.2-1.4c0.7-0.5,1.4-0.9,1.9-1.3c0.5-0.4,0.9-0.8,1.2-1.1
		c0.3-0.4,0.5-0.7,0.6-1.1c0.1-0.4,0.2-0.7,0.3-1.1c0-0.4,0-0.8,0-1.3v-1.3c0-0.3-0.2-0.5-0.5-0.5h-5.2c-0.3,0-0.5-0.2-0.5-0.5v-0.6
		c0-0.3,0.2-0.5,0.5-0.5h7.2c0.3,0,0.5,0.2,0.5,0.5v3c0,0.6,0,1.1,0,1.6c0,0.5-0.1,0.9-0.3,1.4c-0.2,0.4-0.4,0.9-0.7,1.3
		c-0.3,0.4-0.8,0.9-1.3,1.4c-0.6,0.5-1.3,1-2.1,1.6c-0.7,0.5-1.6,1.1-2.6,1.7c-0.2,0.1-0.6,0.1-0.7-0.2L139.5,24.8z M151.7,29.4V12
		c0-0.3,0.2-0.5,0.5-0.5h0.9c0.3,0,0.5,0.2,0.5,0.5v17.4c0,0.3-0.2,0.5-0.5,0.5h-0.9C151.9,29.9,151.7,29.7,151.7,29.4z"/>
</g>
<g>
	<polygon class="st1" points="38.1,10 29.1,10 40.3,36 49.3,36 	"/>
</g>
<g>
	<g>
		<polygon class="st1" points="16.1,10 7.1,10 15.7,30 24.7,30 		"/>
	</g>
</g>
<g>
	<g>
		<polygon class="st1" points="27.1,10 18.1,10 28,33 37,33 		"/>
	</g>
</g>
<polygon class="st0" points="49,30 40,9 40,2 49,2 "/>
</svg>
